<?xml version="1.0" encoding="UTF-8"?>
<svg id="Warstwa_1" data-name="Warstwa 1" xmlns="http://www.w3.org/2000/svg" viewBox="0 0 598.65 885.94">
  <defs>
    <style>
      .cls-1 {
        fill: #bfdbff;
      }

      .cls-2 {
        fill: #1e40af;
      }
    </style>
  </defs>
  <path class="cls-2" d="M560,442.78l-79.52,147.61-148.8,276.23c-13.88,25.76-50.84,25.76-64.71,0l-148.82-276.24-82.42-153C-68.75,243.43,67.9,6.5,289.72.14c3.19-.09,6.39-.14,9.6-.14s6.41.05,9.6.14c113.1,3.24,204.06,66.43,252.21,153.3-37.97,18.61-57.2,61.28-64.66,86.59-.61,2.08-2.5,3.52-4.66,3.52h-90.66c-1.86,0-3.56-1.05-4.36-2.73-11.35-23.8-30.89-42.94-54.97-53.78-1.73-.78-2.82-2.51-2.82-4.41v-22.18c0-14.27,11.56-25.84,25.83-25.84h38.55v4.86c0,2.68,2.17,4.85,4.85,4.85h5.66c2.68,0,4.86-2.17,4.86-4.85v-53.4c0-2.69-2.18-4.86-4.86-4.86h-5.66c-2.68,0-4.85,2.17-4.85,4.86v4.85h-216.13v-4.85c0-2.69-2.18-4.86-4.86-4.86h-5.66c-2.68,0-4.85,2.17-4.85,4.86v53.4c0,2.68,2.17,4.85,4.85,4.85h5.66c2.68,0,4.86-2.17,4.86-4.85v-4.86h39.89c14.27,0,25.84,11.57,25.84,25.84v22.18c0,1.9-1.1,3.63-2.83,4.41-24.08,10.84-43.62,29.98-54.97,53.78-.8,1.68-2.5,2.73-4.36,2.73h-7.62c-30.98,0-59.02,12.56-79.32,32.86s-32.86,48.34-32.86,79.32h.04v72.54c0,2.68,2.17,4.85,4.85,4.85h78.94c2.68,0,4.86-2.17,4.86-4.85v-44.43c0-15.52,12.58-28.11,28.11-28.11h16.38c1.5,0,2.91.71,3.84,1.9,20.43,26.1,52.23,42.87,87.95,42.87s67.51-16.77,87.94-42.87c.93-1.19,2.34-1.9,3.85-1.9h104.03c2.16,0,4.05,1.44,4.66,3.52,7.07,24.02,30.33,63.64,63.53,83.53Z"/>
  <path class="cls-1" d="M562.91,437.38l-2.91,5.4c-33.2-19.89-56.46-59.51-63.53-83.53-.61-2.08-2.5-3.52-4.66-3.52h-104.03c-1.51,0-2.92.71-3.85,1.9-20.43,26.1-52.23,42.87-87.94,42.87s-67.52-16.77-87.95-42.87c-.93-1.19-2.34-1.9-3.84-1.9h-16.38c-15.53,0-28.11,12.59-28.11,28.11v44.43c0,2.68-2.18,4.85-4.86,4.85h-78.94c-2.68,0-4.85-2.17-4.85-4.85v-72.54h-.04c0-30.98,12.56-59.02,32.86-79.32,20.3-20.3,48.34-32.86,79.32-32.86h7.62c1.86,0,3.56-1.05,4.36-2.73,11.35-23.8,30.89-42.94,54.97-53.78,1.73-.78,2.83-2.51,2.83-4.41v-22.18c0-14.27-11.57-25.84-25.84-25.84h-39.89v4.86c0,2.68-2.18,4.85-4.86,4.85h-5.66c-2.68,0-4.85-2.17-4.85-4.85v-53.4c0-2.69,2.17-4.86,4.85-4.86h5.66c2.68,0,4.86,2.17,4.86,4.86v4.85h216.13v-4.85c0-2.69,2.17-4.86,4.85-4.86h5.66c2.68,0,4.86,2.17,4.86,4.86v53.4c0,2.68-2.18,4.85-4.86,4.85h-5.66c-2.68,0-4.85-2.17-4.85-4.85v-4.86h-38.55c-14.27,0-25.83,11.57-25.83,25.84v22.18c0,1.9,1.09,3.63,2.82,4.41,24.08,10.84,43.62,29.98,54.97,53.78.8,1.68,2.5,2.73,4.36,2.73h90.66c2.16,0,4.05-1.44,4.66-3.52,7.46-25.31,26.69-67.98,64.66-86.59,46.28,83.5,52.99,188.88,1.78,283.94Z"/>
</svg>